<?xml version="1.0" standalone="no"?>
<!DOCTYPE svg PUBLIC "-//W3C//DTD SVG 20010904//EN"
 "http://www.w3.org/TR/2001/REC-SVG-20010904/DTD/svg10.dtd">
<svg version="1.0" xmlns="http://www.w3.org/2000/svg"
 width="732.000000pt" height="397.000000pt" viewBox="0 0 732.000000 397.000000"
 preserveAspectRatio="xMidYMid meet">

<g transform="translate(0.000000,397.000000) scale(0.100000,-0.100000)"
fill="#000000" stroke="none">
<path d="M1227 2629 l-157 -91 2 -185 3 -185 145 -85 c80 -47 151 -87 158 -90
9 -4 12 35 12 175 l0 180 160 93 c88 50 160 93 160 94 0 3 -316 185 -321 185
-2 0 -75 -41 -162 -91z"/>
<path d="M1877 2629 l-158 -91 160 -91 161 -91 0 -184 c0 -108 4 -182 9 -180
5 2 77 41 160 88 l150 85 1 186 0 186 -160 92 c-88 50 -161 91 -163 91 -1 0
-73 -41 -160 -91z"/>
<path d="M2666 2312 c-95 -31 -146 -116 -146 -243 0 -119 47 -201 137 -235 53
-21 173 -15 221 10 l32 17 0 79 c0 70 2 79 20 85 11 3 20 13 20 21 0 11 -18
14 -86 14 -62 0 -85 -3 -82 -12 3 -7 19 -16 36 -20 l32 -9 0 -74 0 -73 -36
-12 c-115 -38 -224 61 -226 204 -3 149 65 231 185 224 l52 -3 19 -52 c10 -29
22 -53 26 -53 9 0 25 119 17 126 -10 11 -82 24 -127 23 -25 0 -67 -8 -94 -17z"/>
<path d="M5846 2298 c-7 -18 -48 -124 -91 -236 -67 -173 -81 -203 -102 -208
-12 -4 -23 -12 -23 -20 0 -11 18 -14 75 -14 58 0 75 3 75 14 0 8 -13 17 -29
21 l-30 6 22 62 22 62 89 0 89 0 23 -62 23 -62 -29 -6 c-17 -4 -30 -13 -30
-21 0 -11 19 -14 90 -14 66 0 90 3 90 13 0 7 -13 17 -28 23 -25 10 -37 34
-116 242 -49 128 -93 232 -98 232 -5 0 -15 -15 -22 -32z m79 -257 c4 -7 -18
-11 -66 -11 -63 0 -71 2 -67 18 3 9 18 55 34 102 l29 85 32 -92 c17 -50 34
-97 38 -102z"/>
<path d="M3750 2311 c0 -5 12 -13 26 -18 23 -8 34 -27 71 -123 134 -350 135
-351 156 -348 15 2 30 34 73 158 102 294 105 301 130 310 46 18 25 30 -52 30
-56 0 -75 -3 -72 -12 3 -7 14 -14 26 -16 12 -2 22 -6 22 -10 1 -4 -25 -92 -57
-195 -58 -187 -58 -188 -69 -150 -7 21 -37 105 -68 187 -31 82 -56 152 -56
157 0 4 10 9 22 11 12 2 23 9 26 16 3 9 -19 12 -87 12 -50 0 -91 -4 -91 -9z"/>
<path d="M6152 2308 c3 -7 14 -14 26 -16 22 -3 22 -5 22 -218 l0 -214 -25 -6
c-14 -3 -25 -12 -25 -20 0 -11 19 -14 84 -14 91 0 118 13 67 33 l-31 11 0 209
0 208 30 10 c53 19 32 29 -61 29 -68 0 -90 -3 -87 -12z"/>
<path d="M1652 2274 l-62 -35 0 -74 0 -74 64 -36 63 -35 59 33 59 33 0 78 0
78 -60 33 -60 34 -63 -35z"/>
<path d="M3112 2180 c-71 -17 -112 -82 -112 -178 0 -74 31 -138 80 -164 47
-24 126 -24 168 2 34 21 46 48 15 34 -10 -4 -39 -9 -66 -12 -71 -6 -116 30
-132 105 l-6 32 113 3 113 3 3 42 c7 94 -76 157 -176 133z m77 -37 c21 -17 45
-89 35 -105 -3 -4 -39 -8 -80 -8 l-74 0 0 33 c0 38 23 75 54 87 31 13 42 12
65 -7z"/>
<path d="M3396 2177 c-45 -14 -58 -34 -24 -39 23 -3 23 -5 26 -141 l3 -137
-26 -10 c-47 -18 -27 -30 50 -30 48 0 75 4 75 11 0 6 -9 13 -20 16 -19 5 -20
14 -20 122 0 115 0 118 28 144 20 19 39 27 65 27 56 0 67 -26 74 -164 l6 -115
-27 -11 c-15 -5 -24 -14 -21 -20 9 -14 145 -13 145 1 0 6 -9 13 -20 16 -18 5
-20 14 -20 112 0 159 -18 206 -83 221 -51 11 -103 -5 -125 -38 l-17 -26 -5 34
c-6 39 -12 42 -64 27z"/>
<path d="M4310 2178 c-75 -21 -117 -98 -108 -197 6 -65 37 -120 78 -143 47
-24 125 -24 168 2 34 21 46 48 15 34 -31 -13 -97 -16 -125 -5 -33 13 -68 65
-68 104 l0 27 110 0 110 0 0 48 c0 26 -6 58 -13 71 -27 53 -99 78 -167 59z
m74 -30 c17 -7 30 -24 36 -47 19 -70 19 -71 -70 -71 -79 0 -80 0 -80 25 0 36
27 84 53 95 30 12 32 12 61 -2z"/>
<path d="M4601 2177 c-50 -14 -67 -37 -27 -37 l26 0 0 -140 0 -140 -25 -10
c-51 -19 -27 -31 58 -28 79 3 106 17 55 28 -22 6 -23 10 -26 116 -2 100 -1
113 18 137 18 22 30 27 66 27 35 0 44 3 44 18 -1 51 -54 48 -100 -5 l-30 -34
0 41 c0 22 -3 40 -7 39 -5 0 -28 -6 -52 -12z"/>
<path d="M4913 2179 c-37 -11 -73 -52 -73 -85 0 -28 52 -89 94 -111 72 -36 95
-83 58 -116 -18 -16 -40 -22 -73 -19 -9 1 -24 20 -34 42 -21 45 -30 50 -39 18
-19 -74 -5 -88 92 -88 88 0 132 34 132 102 0 39 -24 65 -107 117 -56 35 -70
59 -53 91 24 46 93 33 105 -20 11 -50 28 -40 39 22 6 34 4 38 -16 42 -58 12
-95 13 -125 5z"/>
<path d="M5252 2180 c-77 -18 -119 -96 -109 -202 6 -70 35 -120 81 -142 47
-22 123 -21 164 4 34 21 46 49 15 34 -10 -5 -44 -9 -75 -9 -49 0 -62 4 -84 26
-16 16 -28 41 -31 67 l-6 42 112 0 111 0 0 48 c0 26 -6 58 -13 71 -26 51 -97
77 -165 61z m83 -42 c18 -17 26 -34 28 -63 l2 -40 -77 -3 -78 -3 0 28 c0 39
21 75 50 90 35 18 45 16 75 -9z"/>
<path d="M1390 1795 l0 -184 159 -90 c87 -50 162 -91 166 -91 4 0 79 41 166
91 l159 92 0 184 0 185 -32 -20 c-143 -85 -284 -165 -293 -165 -6 0 -81 41
-168 91 l-157 91 0 -184z"/>
</g>
</svg>
